<svg xmlns="http://www.w3.org/2000/svg" id="Layer_1" data-name="Layer 1" viewBox="0 0 42 42.35">
  <defs>
    <style>
      .cls-1{fill:#8bd1d0;}
    </style>
  </defs>
  <path d="M36.57 6.12a.56.56 0 0 1-.4-.17.59.59 0 0 1 0-.82L41 .17a.56.56 0 0 1 .81 0 .59.59 0 0 1 0 .82L37 5.95a.56.56 0 0 1-.43.17z" class="cls-1"/>
  <path d="M41.43 6.12a.56.56 0 0 1-.4-.17L36.17 1a.59.59 0 0 1 0-.82.56.56 0 0 1 .81 0l4.86 4.95a.59.59 0 0 1 0 .82.54.54 0 0 1-.41.17zm-4.86 18.11a.56.56 0 0 1-.4-.17.59.59 0 0 1 0-.82l4.86-5a.56.56 0 0 1 .81 0 .59.59 0 0 1 0 .82l-4.86 5a.56.56 0 0 1-.41.17z" class="cls-1"/>
  <path d="M41.43 24.23a.56.56 0 0 1-.4-.17l-4.86-5a.59.59 0 0 1 0-.82.56.56 0 0 1 .81 0l4.86 4.95a.59.59 0 0 1 0 .82.54.54 0 0 1-.41.22zm-4.86 18.12a.56.56 0 0 1-.4-.17.59.59 0 0 1 0-.82l4.86-5a.56.56 0 0 1 .81 0 .59.59 0 0 1 0 .82l-4.86 5a.56.56 0 0 1-.41.17z" class="cls-1"/>
  <path d="M41.43 42.35a.56.56 0 0 1-.4-.17l-4.86-5a.59.59 0 0 1 0-.82.56.56 0 0 1 .81 0l4.86 4.95a.59.59 0 0 1 0 .82.54.54 0 0 1-.41.22zM18.57 6.12a.56.56 0 0 1-.4-.17.59.59 0 0 1 0-.82L23 .17a.56.56 0 0 1 .81 0 .59.59 0 0 1 0 .82L19 5.95a.56.56 0 0 1-.43.17z" class="cls-1"/>
  <path d="M23.43 6.12a.56.56 0 0 1-.4-.17L18.17 1a.59.59 0 0 1 0-.82.56.56 0 0 1 .81 0l4.86 4.95a.59.59 0 0 1 0 .82.54.54 0 0 1-.41.17zm-4.86 36.23a.56.56 0 0 1-.4-.17.59.59 0 0 1 0-.82l4.86-5a.56.56 0 0 1 .81 0 .59.59 0 0 1 0 .82l-4.86 5a.56.56 0 0 1-.41.17z" class="cls-1"/>
  <path d="M23.43 42.35a.56.56 0 0 1-.4-.17l-4.86-5a.59.59 0 0 1 0-.82.56.56 0 0 1 .81 0l4.86 4.95a.59.59 0 0 1 0 .82.54.54 0 0 1-.41.22zM.57 6.12a.56.56 0 0 1-.4-.17.59.59 0 0 1 0-.82L5 .17a.56.56 0 0 1 .81 0 .59.59 0 0 1 0 .82L1 5.95a.56.56 0 0 1-.43.17z" class="cls-1"/>
  <path d="M5.43 6.12A.56.56 0 0 1 5 5.95L.17 1a.59.59 0 0 1 0-.82A.56.56 0 0 1 1 .17l4.83 4.95a.59.59 0 0 1 0 .82.54.54 0 0 1-.4.18zM.57 24.23a.56.56 0 0 1-.4-.17.59.59 0 0 1 0-.82l4.86-5a.56.56 0 0 1 .81 0 .59.59 0 0 1 0 .82l-4.84 5a.56.56 0 0 1-.43.17z" class="cls-1"/>
  <path d="M5.43 24.23a.56.56 0 0 1-.4-.17l-4.86-5a.59.59 0 0 1 0-.82.56.56 0 0 1 .81 0l4.86 4.95a.59.59 0 0 1 0 .82.54.54 0 0 1-.41.22zM.57 42.35a.56.56 0 0 1-.4-.17.59.59 0 0 1 0-.82L5 36.4a.56.56 0 0 1 .81 0 .59.59 0 0 1 0 .82L1 42.18a.56.56 0 0 1-.43.17z" class="cls-1"/>
  <path d="M5.43 42.35a.56.56 0 0 1-.4-.17l-4.86-5a.59.59 0 0 1 0-.82.56.56 0 0 1 .81 0l4.86 4.95a.59.59 0 0 1 0 .82.54.54 0 0 1-.41.22z" class="cls-1"/>
</svg>
