<svg id="Layer_1" data-name="Layer 1" xmlns="http://www.w3.org/2000/svg" viewBox="0 0 18 18.35"><defs><style>.cls-1{fill:#8bd1d0;}</style></defs><title>svg-icon--x_border_alternated</title><path class="cls-1" d="M12.57,6.12a.56.56,0,0,1-.4-.17.59.59,0,0,1,0-.82L17,.17a.56.56,0,0,1,.81,0,.59.59,0,0,1,0,.82L13,5.95A.56.56,0,0,1,12.57,6.12Z"/><path class="cls-1" d="M17.43,6.12a.56.56,0,0,1-.4-.17L12.17,1a.59.59,0,0,1,0-.82.56.56,0,0,1,.81,0l4.86,4.95a.59.59,0,0,1,0,.82A.54.54,0,0,1,17.43,6.12Z"/><path class="cls-1" d="M12.57,12.23a.56.56,0,0,1-.4-.17.59.59,0,0,1,0-.82l4.86-5a.56.56,0,0,1,.81,0,.59.59,0,0,1,0,.82l-4.86,5A.56.56,0,0,1,12.57,12.23Z"/><path class="cls-1" d="M17.43,12.23a.56.56,0,0,1-.4-.17l-4.86-5a.59.59,0,0,1,0-.82.56.56,0,0,1,.81,0l4.86,4.95a.59.59,0,0,1,0,.82A.54.54,0,0,1,17.43,12.23Z"/><path class="cls-1" d="M12.57,18.35a.56.56,0,0,1-.4-.17.59.59,0,0,1,0-.82l4.86-5a.56.56,0,0,1,.81,0,.59.59,0,0,1,0,.82l-4.86,5A.56.56,0,0,1,12.57,18.35Z"/><path class="cls-1" d="M17.43,18.35a.56.56,0,0,1-.4-.17l-4.86-5a.59.59,0,0,1,0-.82.56.56,0,0,1,.81,0l4.86,4.95a.59.59,0,0,1,0,.82A.54.54,0,0,1,17.43,18.35Z"/><path class="cls-1" d="M6.57,6.12a.56.56,0,0,1-.4-.17.59.59,0,0,1,0-.82L11,.17a.56.56,0,0,1,.81,0,.59.59,0,0,1,0,.82L7,5.95A.56.56,0,0,1,6.57,6.12Z"/><path class="cls-1" d="M11.43,6.12a.56.56,0,0,1-.4-.17L6.17,1a.59.59,0,0,1,0-.82A.56.56,0,0,1,7,.17l4.86,4.95a.59.59,0,0,1,0,.82A.54.54,0,0,1,11.43,6.12Z"/><path class="cls-1" d="M6.57,18.35a.56.56,0,0,1-.4-.17.59.59,0,0,1,0-.82l4.86-5a.56.56,0,0,1,.81,0,.59.59,0,0,1,0,.82L7,18.18A.56.56,0,0,1,6.57,18.35Z"/><path class="cls-1" d="M11.43,18.35a.56.56,0,0,1-.4-.17l-4.86-5a.59.59,0,0,1,0-.82.56.56,0,0,1,.81,0l4.86,4.95a.59.59,0,0,1,0,.82A.54.54,0,0,1,11.43,18.35Z"/><path class="cls-1" d="M.57,6.12a.56.56,0,0,1-.4-.17.59.59,0,0,1,0-.82L5,.17a.56.56,0,0,1,.81,0,.59.59,0,0,1,0,.82L1,5.95A.56.56,0,0,1,.57,6.12Z"/><path class="cls-1" d="M5.43,6.12A.56.56,0,0,1,5,5.95L.17,1a.59.59,0,0,1,0-.82A.56.56,0,0,1,1,.17L5.83,5.12a.59.59,0,0,1,0,.82A.54.54,0,0,1,5.43,6.12Z"/><path class="cls-1" d="M.57,12.23a.56.56,0,0,1-.4-.17.59.59,0,0,1,0-.82L5,6.29a.56.56,0,0,1,.81,0,.59.59,0,0,1,0,.82L1,12.06A.56.56,0,0,1,.57,12.23Z"/><path class="cls-1" d="M5.43,12.23a.56.56,0,0,1-.4-.17l-4.86-5a.59.59,0,0,1,0-.82.56.56,0,0,1,.81,0l4.86,4.95a.59.59,0,0,1,0,.82A.54.54,0,0,1,5.43,12.23Z"/><path class="cls-1" d="M.57,18.35a.56.56,0,0,1-.4-.17.59.59,0,0,1,0-.82L5,12.4a.56.56,0,0,1,.81,0,.59.59,0,0,1,0,.82L1,18.18A.56.56,0,0,1,.57,18.35Z"/><path class="cls-1" d="M5.43,18.35a.56.56,0,0,1-.4-.17l-4.86-5a.59.59,0,0,1,0-.82.56.56,0,0,1,.81,0l4.86,4.95a.59.59,0,0,1,0,.82A.54.54,0,0,1,5.43,18.35Z"/></svg>