<svg id="Isolation_Mode" data-name="Isolation Mode" xmlns="http://www.w3.org/2000/svg" xmlns:xlink="http://www.w3.org/1999/xlink" viewBox="0 0 395.77 231.79"><defs><style>.cls-1,.cls-2{fill:none;}.cls-2{stroke:#8bd2d4;stroke-linecap:round;stroke-miterlimit:10;stroke-width:1.2px;}.cls-3{clip-path:url(#clip-path);}.cls-4{clip-path:url(#clip-path-2);}.cls-5{clip-path:url(#clip-path-3);}.cls-6{clip-path:url(#clip-path-4);}.cls-7{clip-path:url(#clip-path-5);}.cls-8{clip-path:url(#clip-path-6);}.cls-9{clip-path:url(#clip-path-7);}.cls-10{clip-path:url(#clip-path-8);}</style><clipPath id="clip-path" transform="translate(-6 -6)"><rect class="cls-1" x="389.46" y="225.48" width="18.31" height="12.31"/></clipPath><clipPath id="clip-path-2" transform="translate(-6 -6)"><rect class="cls-1" x="389.46" y="225.48" width="12.31" height="18.31"/></clipPath><clipPath id="clip-path-3" transform="translate(-6 -6)"><rect class="cls-1" x="6" y="225.48" width="12.31" height="18.31"/></clipPath><clipPath id="clip-path-4" transform="translate(-6 -6)"><rect class="cls-1" y="225.48" width="18.31" height="12.31"/></clipPath><clipPath id="clip-path-5" transform="translate(-6 -6)"><rect class="cls-1" y="6" width="18.31" height="12.31"/></clipPath><clipPath id="clip-path-6" transform="translate(-6 -6)"><rect class="cls-1" x="6" width="12.31" height="18.31"/></clipPath><clipPath id="clip-path-7" transform="translate(-6 -6)"><rect class="cls-1" x="389.46" width="12.31" height="18.31"/></clipPath><clipPath id="clip-path-8" transform="translate(-6 -6)"><rect class="cls-1" x="389.46" y="6" width="18.31" height="12.31"/></clipPath></defs><title>svg-border</title><line class="cls-2" x1="390.06" y1="21.1" x2="395.17" y2="26.21"/><line class="cls-2" x1="395.17" y1="21.1" x2="390.06" y2="26.21"/><line class="cls-2" x1="390.06" y1="41.6" x2="395.17" y2="46.7"/><line class="cls-2" x1="395.17" y1="41.6" x2="390.06" y2="46.7"/><line class="cls-2" x1="390.06" y1="62.09" x2="395.17" y2="67.2"/><line class="cls-2" x1="395.17" y1="62.09" x2="390.06" y2="67.2"/><line class="cls-2" x1="390.06" y1="82.59" x2="395.17" y2="87.7"/><line class="cls-2" x1="395.17" y1="82.59" x2="390.06" y2="87.7"/><line class="cls-2" x1="390.06" y1="103.09" x2="395.17" y2="108.2"/><line class="cls-2" x1="395.17" y1="103.09" x2="390.06" y2="108.2"/><line class="cls-2" x1="390.06" y1="123.59" x2="395.17" y2="128.7"/><line class="cls-2" x1="395.17" y1="123.59" x2="390.06" y2="128.7"/><line class="cls-2" x1="390.06" y1="144.09" x2="395.17" y2="149.19"/><line class="cls-2" x1="395.17" y1="144.09" x2="390.06" y2="149.19"/><line class="cls-2" x1="390.06" y1="164.58" x2="395.17" y2="169.69"/><line class="cls-2" x1="395.17" y1="164.58" x2="390.06" y2="169.69"/><line class="cls-2" x1="390.06" y1="185.08" x2="395.17" y2="190.19"/><line class="cls-2" x1="395.17" y1="185.08" x2="390.06" y2="190.19"/><line class="cls-2" x1="390.06" y1="205.58" x2="395.17" y2="210.69"/><line class="cls-2" x1="395.17" y1="205.58" x2="390.06" y2="210.69"/><line class="cls-2" x1="374.67" y1="226.08" x2="369.56" y2="231.19"/><line class="cls-2" x1="374.67" y1="231.19" x2="369.56" y2="226.08"/><line class="cls-2" x1="354.17" y1="226.08" x2="349.07" y2="231.19"/><line class="cls-2" x1="354.17" y1="231.19" x2="349.07" y2="226.08"/><line class="cls-2" x1="333.68" y1="226.08" x2="328.57" y2="231.19"/><line class="cls-2" x1="333.68" y1="231.19" x2="328.57" y2="226.08"/><line class="cls-2" x1="313.18" y1="226.08" x2="308.07" y2="231.19"/><line class="cls-2" x1="313.18" y1="231.19" x2="308.07" y2="226.08"/><line class="cls-2" x1="292.68" y1="226.08" x2="287.57" y2="231.19"/><line class="cls-2" x1="292.68" y1="231.19" x2="287.57" y2="226.08"/><line class="cls-2" x1="272.18" y1="226.08" x2="267.07" y2="231.19"/><line class="cls-2" x1="272.18" y1="231.19" x2="267.07" y2="226.08"/><line class="cls-2" x1="251.68" y1="226.08" x2="246.58" y2="231.19"/><line class="cls-2" x1="251.68" y1="231.19" x2="246.58" y2="226.08"/><line class="cls-2" x1="231.19" y1="226.08" x2="226.08" y2="231.19"/><line class="cls-2" x1="231.19" y1="231.19" x2="226.08" y2="226.08"/><line class="cls-2" x1="210.69" y1="226.08" x2="205.58" y2="231.19"/><line class="cls-2" x1="210.69" y1="231.19" x2="205.58" y2="226.08"/><line class="cls-2" x1="190.19" y1="226.08" x2="185.08" y2="231.19"/><line class="cls-2" x1="190.19" y1="231.19" x2="185.08" y2="226.08"/><line class="cls-2" x1="169.69" y1="226.08" x2="164.58" y2="231.19"/><line class="cls-2" x1="169.69" y1="231.19" x2="164.58" y2="226.08"/><line class="cls-2" x1="149.19" y1="226.08" x2="144.09" y2="231.19"/><line class="cls-2" x1="149.19" y1="231.19" x2="144.09" y2="226.08"/><line class="cls-2" x1="128.7" y1="226.08" x2="123.59" y2="231.19"/><line class="cls-2" x1="128.7" y1="231.19" x2="123.59" y2="226.08"/><line class="cls-2" x1="108.2" y1="226.08" x2="103.09" y2="231.19"/><line class="cls-2" x1="108.2" y1="231.19" x2="103.09" y2="226.08"/><line class="cls-2" x1="87.7" y1="226.08" x2="82.59" y2="231.19"/><line class="cls-2" x1="87.7" y1="231.19" x2="82.59" y2="226.08"/><line class="cls-2" x1="67.2" y1="226.08" x2="62.09" y2="231.19"/><line class="cls-2" x1="67.2" y1="231.19" x2="62.09" y2="226.08"/><line class="cls-2" x1="46.7" y1="226.08" x2="41.6" y2="231.19"/><line class="cls-2" x1="46.7" y1="231.19" x2="41.6" y2="226.08"/><line class="cls-2" x1="26.21" y1="226.08" x2="21.1" y2="231.19"/><line class="cls-2" x1="26.21" y1="231.19" x2="21.1" y2="226.08"/><line class="cls-2" x1="5.71" y1="210.69" x2="0.6" y2="205.58"/><line class="cls-2" x1="0.6" y1="210.69" x2="5.71" y2="205.58"/><line class="cls-2" x1="5.71" y1="190.19" x2="0.6" y2="185.08"/><line class="cls-2" x1="0.6" y1="190.19" x2="5.71" y2="185.08"/><line class="cls-2" x1="5.71" y1="169.69" x2="0.6" y2="164.58"/><line class="cls-2" x1="0.6" y1="169.69" x2="5.71" y2="164.58"/><line class="cls-2" x1="5.71" y1="149.19" x2="0.6" y2="144.09"/><line class="cls-2" x1="0.6" y1="149.19" x2="5.71" y2="144.09"/><line class="cls-2" x1="5.71" y1="128.7" x2="0.6" y2="123.59"/><line class="cls-2" x1="0.6" y1="128.7" x2="5.71" y2="123.59"/><line class="cls-2" x1="5.71" y1="108.2" x2="0.6" y2="103.09"/><line class="cls-2" x1="0.6" y1="108.2" x2="5.71" y2="103.09"/><line class="cls-2" x1="5.71" y1="87.7" x2="0.6" y2="82.59"/><line class="cls-2" x1="0.6" y1="87.7" x2="5.71" y2="82.59"/><line class="cls-2" x1="5.71" y1="67.2" x2="0.6" y2="62.09"/><line class="cls-2" x1="0.6" y1="67.2" x2="5.71" y2="62.09"/><line class="cls-2" x1="5.71" y1="46.7" x2="0.6" y2="41.6"/><line class="cls-2" x1="0.6" y1="46.7" x2="5.71" y2="41.6"/><line class="cls-2" x1="5.71" y1="26.21" x2="0.6" y2="21.1"/><line class="cls-2" x1="0.6" y1="26.21" x2="5.71" y2="21.1"/><line class="cls-2" x1="21.1" y1="5.71" x2="26.21" y2="0.6"/><line class="cls-2" x1="21.1" y1="0.6" x2="26.21" y2="5.71"/><line class="cls-2" x1="41.6" y1="5.71" x2="46.7" y2="0.6"/><line class="cls-2" x1="41.6" y1="0.6" x2="46.7" y2="5.71"/><line class="cls-2" x1="62.09" y1="5.71" x2="67.2" y2="0.6"/><line class="cls-2" x1="62.09" y1="0.6" x2="67.2" y2="5.71"/><line class="cls-2" x1="82.59" y1="5.71" x2="87.7" y2="0.6"/><line class="cls-2" x1="82.59" y1="0.6" x2="87.7" y2="5.71"/><line class="cls-2" x1="103.09" y1="5.71" x2="108.2" y2="0.6"/><line class="cls-2" x1="103.09" y1="0.6" x2="108.2" y2="5.71"/><line class="cls-2" x1="123.59" y1="5.71" x2="128.7" y2="0.6"/><line class="cls-2" x1="123.59" y1="0.6" x2="128.7" y2="5.71"/><line class="cls-2" x1="144.09" y1="5.71" x2="149.19" y2="0.6"/><line class="cls-2" x1="144.09" y1="0.6" x2="149.19" y2="5.71"/><line class="cls-2" x1="164.58" y1="5.71" x2="169.69" y2="0.6"/><line class="cls-2" x1="164.58" y1="0.6" x2="169.69" y2="5.71"/><line class="cls-2" x1="185.08" y1="5.71" x2="190.19" y2="0.6"/><line class="cls-2" x1="185.08" y1="0.6" x2="190.19" y2="5.71"/><line class="cls-2" x1="205.58" y1="5.71" x2="210.69" y2="0.6"/><line class="cls-2" x1="205.58" y1="0.6" x2="210.69" y2="5.71"/><line class="cls-2" x1="226.08" y1="5.71" x2="231.19" y2="0.6"/><line class="cls-2" x1="226.08" y1="0.6" x2="231.19" y2="5.71"/><line class="cls-2" x1="246.58" y1="5.71" x2="251.68" y2="0.6"/><line class="cls-2" x1="246.58" y1="0.6" x2="251.68" y2="5.71"/><line class="cls-2" x1="267.07" y1="5.71" x2="272.18" y2="0.6"/><line class="cls-2" x1="267.07" y1="0.6" x2="272.18" y2="5.71"/><line class="cls-2" x1="287.57" y1="5.71" x2="292.68" y2="0.6"/><line class="cls-2" x1="287.57" y1="0.6" x2="292.68" y2="5.71"/><line class="cls-2" x1="308.07" y1="5.71" x2="313.18" y2="0.6"/><line class="cls-2" x1="308.07" y1="0.6" x2="313.18" y2="5.71"/><line class="cls-2" x1="328.57" y1="5.71" x2="333.68" y2="0.6"/><line class="cls-2" x1="328.57" y1="0.6" x2="333.68" y2="5.71"/><line class="cls-2" x1="349.07" y1="5.71" x2="354.17" y2="0.6"/><line class="cls-2" x1="349.07" y1="0.6" x2="354.17" y2="5.71"/><line class="cls-2" x1="369.56" y1="5.71" x2="374.67" y2="0.6"/><line class="cls-2" x1="369.56" y1="0.6" x2="374.67" y2="5.71"/><g class="cls-3"><line class="cls-2" x1="390.06" y1="226.08" x2="395.17" y2="231.19"/><line class="cls-2" x1="395.17" y1="226.08" x2="390.06" y2="231.19"/></g><g class="cls-4"><line class="cls-2" x1="395.17" y1="226.08" x2="390.06" y2="231.19"/><line class="cls-2" x1="395.17" y1="231.19" x2="390.06" y2="226.08"/></g><g class="cls-5"><line class="cls-2" x1="5.71" y1="226.08" x2="0.6" y2="231.19"/><line class="cls-2" x1="5.71" y1="231.19" x2="0.6" y2="226.08"/></g><g class="cls-6"><line class="cls-2" x1="5.71" y1="231.19" x2="0.6" y2="226.08"/><line class="cls-2" x1="0.6" y1="231.19" x2="5.71" y2="226.08"/></g><g class="cls-7"><line class="cls-2" x1="5.71" y1="5.71" x2="0.6" y2="0.6"/><line class="cls-2" x1="0.6" y1="5.71" x2="5.71" y2="0.6"/></g><g class="cls-8"><line class="cls-2" x1="0.6" y1="5.71" x2="5.71" y2="0.6"/><line class="cls-2" x1="0.6" y1="0.6" x2="5.71" y2="5.71"/></g><g class="cls-9"><line class="cls-2" x1="390.06" y1="5.71" x2="395.17" y2="0.6"/><line class="cls-2" x1="390.06" y1="0.6" x2="395.17" y2="5.71"/></g><g class="cls-10"><line class="cls-2" x1="390.06" y1="0.6" x2="395.17" y2="5.71"/><line class="cls-2" x1="395.17" y1="0.6" x2="390.06" y2="5.71"/></g></svg>