<svg xmlns="http://www.w3.org/2000/svg" id="Layer_1" data-name="Layer 1" viewBox="0 0 433.87 378.8">
  <defs>
    <style>
      .cls-1{fill:#fabfbf;}
    </style>
  </defs>
  <path d="M217.19 253.87l20.3 41.12 45.38 6.6-32.84 32.01 7.75 45.2-40.59-21.34-40.59 21.34 7.75-45.2-32.84-32.01 45.38-6.6 20.3-41.12zm150.49 0l20.3 41.12 45.38 6.6-32.84 32.01 7.75 45.2-40.59-21.34-40.59 21.34 7.75-45.2L302 301.59l45.38-6.6 20.3-41.12zm-302-1l20.3 41.12 45.38 6.6-32.84 32.01 7.76 45.2-40.6-21.34-40.59 21.34 7.75-45.2L0 300.59l45.38-6.6 20.3-41.12zm302-124.94l20.3 41.13 45.38 6.59-32.84 32.02 7.75 45.2-40.59-21.34-40.59 21.34 7.75-45.2L302 175.65l45.38-6.59 20.3-41.13zm-302-1l20.3 41.13 45.38 6.59-32.84 32.02 7.76 45.2-40.6-21.34-40.59 21.34 7.75-45.2L0 174.65l45.38-6.59 20.3-41.13zM217.7 1l20.29 41.13 45.39 6.59-32.84 32.01 7.75 45.2-40.59-21.34-40.6 21.34 7.76-45.2-32.85-32.01 45.39-6.59L217.7 1zm150.49 0l20.3 41.13 45.38 6.59-32.84 32.01 7.75 45.2-40.59-21.34-40.59 21.34 7.75-45.2-32.84-32.01 45.38-6.59L368.19 1zm-302-1l20.3 41.13 45.38 6.59-32.84 32.01 7.75 45.2-40.59-21.34-40.59 21.34 7.75-45.2L.51 47.72l45.38-6.59L66.19 0z" class="cls-1"/>
</svg>
