<svg xmlns="http://www.w3.org/2000/svg" id="Layer_1" data-name="Layer 1" viewBox="0 0 68.12 68.12">
  <defs>
    <style>
      .cls-1{fill:#87d1d1;}
    </style>
  </defs>
  <path d="M36.22 60l5.46-5.44a1.5 1.5 0 0 0-2.12-2.12l-5.48 5.46-5.44-5.46a1.5 1.5 0 0 0-2.12 2.12L32 60l-5.46 5.48a1.5 1.5 0 0 0 2 2.19l.07-.07 5.44-5.46 5.46 5.46a1.5 1.5 0 0 0 2.12-2.12zm-26.04 0l5.46-5.44a1.5 1.5 0 0 0-2.12-2.12L8 57.94l-5.4-5.46A1.5 1.5 0 0 0 .48 54.6L5.94 60 .48 65.52a1.5 1.5 0 0 0 2 2.19l.07-.07L8 62.18l5.46 5.46a1.5 1.5 0 0 0 2.12-2.12zm52.08 0l5.46-5.44a1.5 1.5 0 0 0-2.12-2.12l-5.48 5.46-5.44-5.46a1.5 1.5 0 0 0-2.12 2.12L58 60l-5.46 5.48a1.5 1.5 0 0 0 2 2.19l.07-.07 5.44-5.46 5.46 5.46a1.5 1.5 0 0 0 2.12-2.12zM10.18 34l5.46-5.44a1.5 1.5 0 0 0-2.12-2.12L8 31.9l-5.4-5.46a1.5 1.5 0 0 0-2.12 2.12L5.94 34 .48 39.48a1.5 1.5 0 0 0 2 2.19l.07-.07L8 36.14l5.5 5.46a1.5 1.5 0 0 0 2.12-2.12zm52.08 0l5.46-5.44a1.5 1.5 0 0 0-2.12-2.12l-5.48 5.46-5.44-5.46a1.5 1.5 0 0 0-2.12 2.12L58 34l-5.46 5.48a1.5 1.5 0 0 0 2 2.19l.07-.07 5.44-5.46 5.46 5.46a1.5 1.5 0 0 0 2.12-2.12zM36.22 8l5.46-5.44A1.5 1.5 0 0 0 39.56.4l-5.48 5.46L28.64.4a1.5 1.5 0 0 0-2.12 2.12L32 8l-5.46 5.48a1.5 1.5 0 0 0 2 2.19l.07-.07 5.44-5.46 5.46 5.46a1.5 1.5 0 0 0 2.12-2.12zM10.18 8l5.46-5.44A1.5 1.5 0 0 0 13.52.4L8 5.86 2.6.4A1.5 1.5 0 0 0 .48 2.52L5.94 8 .48 13.44a1.5 1.5 0 0 0 2 2.19l.07-.07L8 10.1l5.46 5.46a1.5 1.5 0 0 0 2.12-2.12zm52.08 0l5.46-5.44A1.5 1.5 0 0 0 65.6.4l-5.48 5.46L54.68.4a1.5 1.5 0 0 0-2.12 2.12L58 8l-5.46 5.48a1.5 1.5 0 0 0 2 2.19l.07-.07 5.44-5.46 5.46 5.46a1.5 1.5 0 0 0 2.12-2.12z" class="cls-1"/>
</svg>
