<svg id="Isolation_Mode" data-name="Isolation Mode" xmlns="http://www.w3.org/2000/svg" xmlns:xlink="http://www.w3.org/1999/xlink" viewBox="0 0 232.94 138.76"><defs><style>.cls-1,.cls-2{fill:none;}.cls-2{stroke:#fabfbf;stroke-linecap:round;stroke-miterlimit:10;stroke-width:0.8px;}.cls-3{clip-path:url(#clip-path);}.cls-4{clip-path:url(#clip-path-2);}.cls-5{clip-path:url(#clip-path-3);}.cls-6{clip-path:url(#clip-path-4);}.cls-7{clip-path:url(#clip-path-5);}.cls-8{clip-path:url(#clip-path-6);}.cls-9{clip-path:url(#clip-path-7);}.cls-10{clip-path:url(#clip-path-8);}</style><clipPath id="clip-path" transform="translate(-466.77 -938)"><rect class="cls-1" x="691.5" y="1068.55" width="12.2" height="8.2"/></clipPath><clipPath id="clip-path-2" transform="translate(-466.77 -938)"><rect class="cls-1" x="691.5" y="1068.55" width="8.2" height="12.2"/></clipPath><clipPath id="clip-path-3" transform="translate(-466.77 -938)"><rect class="cls-1" x="466.77" y="1068.55" width="8.2" height="12.2"/></clipPath><clipPath id="clip-path-4" transform="translate(-466.77 -938)"><rect class="cls-1" x="462.77" y="1068.55" width="12.2" height="8.2"/></clipPath><clipPath id="clip-path-5" transform="translate(-466.77 -938)"><rect class="cls-1" x="462.77" y="938" width="12.2" height="8.2"/></clipPath><clipPath id="clip-path-6" transform="translate(-466.77 -938)"><rect class="cls-1" x="466.77" y="934" width="8.2" height="12.2"/></clipPath><clipPath id="clip-path-7" transform="translate(-466.77 -938)"><rect class="cls-1" x="691.5" y="934" width="8.2" height="12.2"/></clipPath><clipPath id="clip-path-8" transform="translate(-466.77 -938)"><rect class="cls-1" x="691.5" y="938" width="12.2" height="8.2"/></clipPath></defs><title>svg-border-pink</title><line class="cls-2" x1="229.14" y1="13.86" x2="232.54" y2="17.26"/><line class="cls-2" x1="232.54" y1="13.86" x2="229.14" y2="17.26"/><line class="cls-2" x1="229.14" y1="27.31" x2="232.54" y2="30.71"/><line class="cls-2" x1="232.54" y1="27.31" x2="229.14" y2="30.71"/><line class="cls-2" x1="229.14" y1="40.77" x2="232.54" y2="44.17"/><line class="cls-2" x1="232.54" y1="40.77" x2="229.14" y2="44.17"/><line class="cls-2" x1="229.14" y1="54.22" x2="232.54" y2="57.63"/><line class="cls-2" x1="232.54" y1="54.22" x2="229.14" y2="57.63"/><line class="cls-2" x1="229.14" y1="67.68" x2="232.54" y2="71.08"/><line class="cls-2" x1="232.54" y1="67.68" x2="229.14" y2="71.08"/><line class="cls-2" x1="229.14" y1="81.13" x2="232.54" y2="84.54"/><line class="cls-2" x1="232.54" y1="81.13" x2="229.14" y2="84.54"/><line class="cls-2" x1="229.14" y1="94.59" x2="232.54" y2="97.99"/><line class="cls-2" x1="232.54" y1="94.59" x2="229.14" y2="97.99"/><line class="cls-2" x1="229.14" y1="108.04" x2="232.54" y2="111.45"/><line class="cls-2" x1="232.54" y1="108.04" x2="229.14" y2="111.45"/><line class="cls-2" x1="229.14" y1="121.5" x2="232.54" y2="124.9"/><line class="cls-2" x1="232.54" y1="121.5" x2="229.14" y2="124.9"/><line class="cls-2" x1="219.09" y1="134.95" x2="215.68" y2="138.36"/><line class="cls-2" x1="219.09" y1="138.36" x2="215.68" y2="134.95"/><line class="cls-2" x1="205.63" y1="134.95" x2="202.23" y2="138.36"/><line class="cls-2" x1="205.63" y1="138.36" x2="202.23" y2="134.95"/><line class="cls-2" x1="192.18" y1="134.95" x2="188.77" y2="138.36"/><line class="cls-2" x1="192.18" y1="138.36" x2="188.77" y2="134.95"/><line class="cls-2" x1="178.72" y1="134.95" x2="175.32" y2="138.36"/><line class="cls-2" x1="178.72" y1="138.36" x2="175.32" y2="134.95"/><line class="cls-2" x1="165.27" y1="134.95" x2="161.86" y2="138.36"/><line class="cls-2" x1="165.27" y1="138.36" x2="161.86" y2="134.95"/><line class="cls-2" x1="151.81" y1="134.95" x2="148.41" y2="138.36"/><line class="cls-2" x1="151.81" y1="138.36" x2="148.41" y2="134.95"/><line class="cls-2" x1="138.36" y1="134.95" x2="134.95" y2="138.36"/><line class="cls-2" x1="138.36" y1="138.36" x2="134.95" y2="134.95"/><line class="cls-2" x1="124.9" y1="134.95" x2="121.5" y2="138.36"/><line class="cls-2" x1="124.9" y1="138.36" x2="121.5" y2="134.95"/><line class="cls-2" x1="111.45" y1="134.95" x2="108.04" y2="138.36"/><line class="cls-2" x1="111.45" y1="138.36" x2="108.04" y2="134.95"/><line class="cls-2" x1="97.99" y1="134.95" x2="94.59" y2="138.36"/><line class="cls-2" x1="97.99" y1="138.36" x2="94.59" y2="134.95"/><line class="cls-2" x1="84.54" y1="134.95" x2="81.13" y2="138.36"/><line class="cls-2" x1="84.54" y1="138.36" x2="81.13" y2="134.95"/><line class="cls-2" x1="71.08" y1="134.95" x2="67.68" y2="138.36"/><line class="cls-2" x1="71.08" y1="138.36" x2="67.68" y2="134.95"/><line class="cls-2" x1="57.63" y1="134.95" x2="54.22" y2="138.36"/><line class="cls-2" x1="57.63" y1="138.36" x2="54.22" y2="134.95"/><line class="cls-2" x1="44.17" y1="134.95" x2="40.77" y2="138.36"/><line class="cls-2" x1="44.17" y1="138.36" x2="40.77" y2="134.95"/><line class="cls-2" x1="30.71" y1="134.95" x2="27.31" y2="138.36"/><line class="cls-2" x1="30.71" y1="138.36" x2="27.31" y2="134.95"/><line class="cls-2" x1="17.26" y1="134.95" x2="13.86" y2="138.36"/><line class="cls-2" x1="17.26" y1="138.36" x2="13.86" y2="134.95"/><line class="cls-2" x1="3.8" y1="124.9" x2="0.4" y2="121.5"/><line class="cls-2" x1="0.4" y1="124.9" x2="3.8" y2="121.5"/><line class="cls-2" x1="3.8" y1="111.45" x2="0.4" y2="108.04"/><line class="cls-2" x1="0.4" y1="111.45" x2="3.8" y2="108.04"/><line class="cls-2" x1="3.8" y1="97.99" x2="0.4" y2="94.59"/><line class="cls-2" x1="0.4" y1="97.99" x2="3.8" y2="94.59"/><line class="cls-2" x1="3.8" y1="84.54" x2="0.4" y2="81.13"/><line class="cls-2" x1="0.4" y1="84.54" x2="3.8" y2="81.13"/><line class="cls-2" x1="3.8" y1="71.08" x2="0.4" y2="67.68"/><line class="cls-2" x1="0.4" y1="71.08" x2="3.8" y2="67.68"/><line class="cls-2" x1="3.8" y1="57.63" x2="0.4" y2="54.22"/><line class="cls-2" x1="0.4" y1="57.63" x2="3.8" y2="54.22"/><line class="cls-2" x1="3.8" y1="44.17" x2="0.4" y2="40.77"/><line class="cls-2" x1="0.4" y1="44.17" x2="3.8" y2="40.77"/><line class="cls-2" x1="3.8" y1="30.71" x2="0.4" y2="27.31"/><line class="cls-2" x1="0.4" y1="30.71" x2="3.8" y2="27.31"/><line class="cls-2" x1="3.8" y1="17.26" x2="0.4" y2="13.86"/><line class="cls-2" x1="0.4" y1="17.26" x2="3.8" y2="13.86"/><line class="cls-2" x1="13.86" y1="3.8" x2="17.26" y2="0.4"/><line class="cls-2" x1="13.86" y1="0.4" x2="17.26" y2="3.8"/><line class="cls-2" x1="27.31" y1="3.8" x2="30.71" y2="0.4"/><line class="cls-2" x1="27.31" y1="0.4" x2="30.71" y2="3.8"/><line class="cls-2" x1="40.77" y1="3.8" x2="44.17" y2="0.4"/><line class="cls-2" x1="40.77" y1="0.4" x2="44.17" y2="3.8"/><line class="cls-2" x1="54.22" y1="3.8" x2="57.63" y2="0.4"/><line class="cls-2" x1="54.22" y1="0.4" x2="57.63" y2="3.8"/><line class="cls-2" x1="67.68" y1="3.8" x2="71.08" y2="0.4"/><line class="cls-2" x1="67.68" y1="0.4" x2="71.08" y2="3.8"/><line class="cls-2" x1="81.13" y1="3.8" x2="84.54" y2="0.4"/><line class="cls-2" x1="81.13" y1="0.4" x2="84.54" y2="3.8"/><line class="cls-2" x1="94.59" y1="3.8" x2="97.99" y2="0.4"/><line class="cls-2" x1="94.59" y1="0.4" x2="97.99" y2="3.8"/><line class="cls-2" x1="108.04" y1="3.8" x2="111.45" y2="0.4"/><line class="cls-2" x1="108.04" y1="0.4" x2="111.45" y2="3.8"/><line class="cls-2" x1="121.5" y1="3.8" x2="124.9" y2="0.4"/><line class="cls-2" x1="121.5" y1="0.4" x2="124.9" y2="3.8"/><line class="cls-2" x1="134.95" y1="3.8" x2="138.36" y2="0.4"/><line class="cls-2" x1="134.95" y1="0.4" x2="138.36" y2="3.8"/><line class="cls-2" x1="148.41" y1="3.8" x2="151.81" y2="0.4"/><line class="cls-2" x1="148.41" y1="0.4" x2="151.81" y2="3.8"/><line class="cls-2" x1="161.86" y1="3.8" x2="165.27" y2="0.4"/><line class="cls-2" x1="161.86" y1="0.4" x2="165.27" y2="3.8"/><line class="cls-2" x1="175.32" y1="3.8" x2="178.72" y2="0.4"/><line class="cls-2" x1="175.32" y1="0.4" x2="178.72" y2="3.8"/><line class="cls-2" x1="188.77" y1="3.8" x2="192.18" y2="0.4"/><line class="cls-2" x1="188.77" y1="0.4" x2="192.18" y2="3.8"/><line class="cls-2" x1="202.23" y1="3.8" x2="205.63" y2="0.4"/><line class="cls-2" x1="202.23" y1="0.4" x2="205.63" y2="3.8"/><line class="cls-2" x1="215.68" y1="3.8" x2="219.09" y2="0.4"/><line class="cls-2" x1="215.68" y1="0.4" x2="219.09" y2="3.8"/><g class="cls-3"><line class="cls-2" x1="229.14" y1="134.95" x2="232.54" y2="138.36"/><line class="cls-2" x1="232.54" y1="134.95" x2="229.14" y2="138.36"/></g><g class="cls-4"><line class="cls-2" x1="232.54" y1="134.95" x2="229.14" y2="138.36"/><line class="cls-2" x1="232.54" y1="138.36" x2="229.14" y2="134.95"/></g><g class="cls-5"><line class="cls-2" x1="3.8" y1="134.95" x2="0.4" y2="138.36"/><line class="cls-2" x1="3.8" y1="138.36" x2="0.4" y2="134.95"/></g><g class="cls-6"><line class="cls-2" x1="3.8" y1="138.36" x2="0.4" y2="134.95"/><line class="cls-2" x1="0.4" y1="138.36" x2="3.8" y2="134.95"/></g><g class="cls-7"><line class="cls-2" x1="3.8" y1="3.8" x2="0.4" y2="0.4"/><line class="cls-2" x1="0.4" y1="3.8" x2="3.8" y2="0.4"/></g><g class="cls-8"><line class="cls-2" x1="0.4" y1="3.8" x2="3.8" y2="0.4"/><line class="cls-2" x1="0.4" y1="0.4" x2="3.8" y2="3.8"/></g><g class="cls-9"><line class="cls-2" x1="229.14" y1="3.8" x2="232.54" y2="0.4"/><line class="cls-2" x1="229.14" y1="0.4" x2="232.54" y2="3.8"/></g><g class="cls-10"><line class="cls-2" x1="229.14" y1="0.4" x2="232.54" y2="3.8"/><line class="cls-2" x1="232.54" y1="0.4" x2="229.14" y2="3.8"/></g></svg>