<svg id="Layer_1" data-name="Layer 1" xmlns="http://www.w3.org/2000/svg" viewBox="0 0 71.66 72.66"><defs><style>.cls-1{fill:#8bd1d0;}</style></defs><title>Teal_X_Border_Graphic-02a</title><path class="cls-1" d="M1.87,20a1.83,1.83,0,0,1-1.32-.56,1.93,1.93,0,0,1,0-2.69L16.44.56a1.84,1.84,0,0,1,2.64,0,1.93,1.93,0,0,1,0,2.69L3.19,19.46A1.85,1.85,0,0,1,1.87,20Z"/><path class="cls-1" d="M17.76,20a1.83,1.83,0,0,1-1.32-.56L.55,3.25A1.93,1.93,0,0,1,.55.56a1.84,1.84,0,0,1,2.64,0l15.9,16.2a1.93,1.93,0,0,1,0,2.69A1.8,1.8,0,0,1,17.76,20Z"/><path class="cls-1" d="M27.87,20a1.83,1.83,0,0,1-1.32-.56,1.93,1.93,0,0,1,0-2.69L42.46.56a1.84,1.84,0,0,1,2.64,0,1.93,1.93,0,0,1,0,2.69L29.19,19.46A1.83,1.83,0,0,1,27.87,20Z"/><path class="cls-1" d="M43.78,20a1.83,1.83,0,0,1-1.32-.56L26.55,3.25a1.93,1.93,0,0,1,0-2.69,1.84,1.84,0,0,1,2.64,0l15.9,16.2a1.93,1.93,0,0,1,0,2.69A1.78,1.78,0,0,1,43.78,20Z"/><path class="cls-1" d="M53.89,20a1.83,1.83,0,0,1-1.32-.56,1.93,1.93,0,0,1,0-2.69L68.47.56a1.84,1.84,0,0,1,2.64,0,1.93,1.93,0,0,1,0,2.69L55.21,19.46A1.83,1.83,0,0,1,53.89,20Z"/><path class="cls-1" d="M69.8,20a1.83,1.83,0,0,1-1.32-.56L52.57,3.25a1.93,1.93,0,0,1,0-2.69,1.84,1.84,0,0,1,2.64,0l15.9,16.2a1.93,1.93,0,0,1,0,2.69A1.78,1.78,0,0,1,69.8,20Z"/><path class="cls-1" d="M1.87,45.84a1.83,1.83,0,0,1-1.32-.56,1.93,1.93,0,0,1,0-2.69l15.9-16.2a1.84,1.84,0,0,1,2.64,0,1.93,1.93,0,0,1,0,2.69L3.19,45.28A1.85,1.85,0,0,1,1.87,45.84Z"/><path class="cls-1" d="M17.76,45.84a1.83,1.83,0,0,1-1.32-.56L.55,29.08a1.93,1.93,0,0,1,0-2.69,1.84,1.84,0,0,1,2.64,0l15.9,16.2a1.93,1.93,0,0,1,0,2.69A1.83,1.83,0,0,1,17.76,45.84Z"/><path class="cls-1" d="M53.89,45.84a1.83,1.83,0,0,1-1.32-.56,1.93,1.93,0,0,1,0-2.69l15.9-16.2a1.84,1.84,0,0,1,2.64,0,1.93,1.93,0,0,1,0,2.69l-15.9,16.2A1.83,1.83,0,0,1,53.89,45.84Z"/><path class="cls-1" d="M69.8,45.84a1.83,1.83,0,0,1-1.32-.56L52.57,29.08a1.93,1.93,0,0,1,0-2.69,1.84,1.84,0,0,1,2.64,0l15.9,16.2a1.93,1.93,0,0,1,0,2.69A1.81,1.81,0,0,1,69.8,45.84Z"/><path class="cls-1" d="M1.87,72.66A1.83,1.83,0,0,1,.55,72.1a1.93,1.93,0,0,1,0-2.69l15.9-16.2a1.84,1.84,0,0,1,2.64,0,1.93,1.93,0,0,1,0,2.69L3.19,72.1A1.85,1.85,0,0,1,1.87,72.66Z"/><path class="cls-1" d="M17.76,72.66a1.83,1.83,0,0,1-1.32-.56L.55,55.9a1.93,1.93,0,0,1,0-2.69,1.84,1.84,0,0,1,2.64,0l15.9,16.2a1.93,1.93,0,0,1,0,2.69A1.83,1.83,0,0,1,17.76,72.66Z"/><path class="cls-1" d="M27.87,72.66a1.83,1.83,0,0,1-1.32-.56,1.93,1.93,0,0,1,0-2.69l15.9-16.2a1.84,1.84,0,0,1,2.64,0,1.93,1.93,0,0,1,0,2.69L29.19,72.1A1.83,1.83,0,0,1,27.87,72.66Z"/><path class="cls-1" d="M43.78,72.66a1.83,1.83,0,0,1-1.32-.56L26.55,55.9a1.93,1.93,0,0,1,0-2.69,1.84,1.84,0,0,1,2.64,0l15.9,16.2a1.93,1.93,0,0,1,0,2.69A1.81,1.81,0,0,1,43.78,72.66Z"/><path class="cls-1" d="M53.89,72.66a1.83,1.83,0,0,1-1.32-.56,1.93,1.93,0,0,1,0-2.69l15.9-16.2a1.84,1.84,0,0,1,2.64,0,1.93,1.93,0,0,1,0,2.69L55.21,72.1A1.83,1.83,0,0,1,53.89,72.66Z"/><path class="cls-1" d="M69.8,72.66a1.83,1.83,0,0,1-1.32-.56L52.57,55.9a1.93,1.93,0,0,1,0-2.69,1.84,1.84,0,0,1,2.64,0l15.9,16.2a1.93,1.93,0,0,1,0,2.69A1.81,1.81,0,0,1,69.8,72.66Z"/></svg>