<svg id="Layer_1" data-name="Layer 1" xmlns="http://www.w3.org/2000/svg" viewBox="0 0 42 42.35"><defs><style>.cls-1{fill:#8bd1d0;}</style></defs><title>Teal_X_Border_Graphic-02b</title><path class="cls-1" d="M36.57,6.12a.56.56,0,0,1-.4-.17.59.59,0,0,1,0-.82L41,.17a.56.56,0,0,1,.81,0,.59.59,0,0,1,0,.82L37,5.95A.56.56,0,0,1,36.57,6.12Z"/><path class="cls-1" d="M41.43,6.12a.56.56,0,0,1-.4-.17L36.17,1a.59.59,0,0,1,0-.82.56.56,0,0,1,.81,0l4.86,4.95a.59.59,0,0,1,0,.82A.54.54,0,0,1,41.43,6.12Z"/><path class="cls-1" d="M36.57,24.23a.56.56,0,0,1-.4-.17.59.59,0,0,1,0-.82l4.86-5a.56.56,0,0,1,.81,0,.59.59,0,0,1,0,.82l-4.86,5A.56.56,0,0,1,36.57,24.23Z"/><path class="cls-1" d="M41.43,24.23a.56.56,0,0,1-.4-.17l-4.86-5a.59.59,0,0,1,0-.82.56.56,0,0,1,.81,0l4.86,4.95a.59.59,0,0,1,0,.82A.54.54,0,0,1,41.43,24.23Z"/><path class="cls-1" d="M36.57,42.35a.56.56,0,0,1-.4-.17.59.59,0,0,1,0-.82l4.86-5a.56.56,0,0,1,.81,0,.59.59,0,0,1,0,.82l-4.86,5A.56.56,0,0,1,36.57,42.35Z"/><path class="cls-1" d="M41.43,42.35a.56.56,0,0,1-.4-.17l-4.86-5a.59.59,0,0,1,0-.82.56.56,0,0,1,.81,0l4.86,4.95a.59.59,0,0,1,0,.82A.54.54,0,0,1,41.43,42.35Z"/><path class="cls-1" d="M18.57,6.12a.56.56,0,0,1-.4-.17.59.59,0,0,1,0-.82L23,.17a.56.56,0,0,1,.81,0,.59.59,0,0,1,0,.82L19,5.95A.56.56,0,0,1,18.57,6.12Z"/><path class="cls-1" d="M23.43,6.12a.56.56,0,0,1-.4-.17L18.17,1a.59.59,0,0,1,0-.82.56.56,0,0,1,.81,0l4.86,4.95a.59.59,0,0,1,0,.82A.54.54,0,0,1,23.43,6.12Z"/><path class="cls-1" d="M18.57,42.35a.56.56,0,0,1-.4-.17.59.59,0,0,1,0-.82l4.86-5a.56.56,0,0,1,.81,0,.59.59,0,0,1,0,.82l-4.86,5A.56.56,0,0,1,18.57,42.35Z"/><path class="cls-1" d="M23.43,42.35a.56.56,0,0,1-.4-.17l-4.86-5a.59.59,0,0,1,0-.82.56.56,0,0,1,.81,0l4.86,4.95a.59.59,0,0,1,0,.82A.54.54,0,0,1,23.43,42.35Z"/><path class="cls-1" d="M.57,6.12a.56.56,0,0,1-.4-.17.59.59,0,0,1,0-.82L5,.17a.56.56,0,0,1,.81,0,.59.59,0,0,1,0,.82L1,5.95A.56.56,0,0,1,.57,6.12Z"/><path class="cls-1" d="M5.43,6.12A.56.56,0,0,1,5,5.95L.17,1a.59.59,0,0,1,0-.82A.56.56,0,0,1,1,.17L5.83,5.12a.59.59,0,0,1,0,.82A.54.54,0,0,1,5.43,6.12Z"/><path class="cls-1" d="M.57,24.23a.56.56,0,0,1-.4-.17.59.59,0,0,1,0-.82l4.86-5a.56.56,0,0,1,.81,0,.59.59,0,0,1,0,.82L1,24.06A.56.56,0,0,1,.57,24.23Z"/><path class="cls-1" d="M5.43,24.23a.56.56,0,0,1-.4-.17l-4.86-5a.59.59,0,0,1,0-.82.56.56,0,0,1,.81,0l4.86,4.95a.59.59,0,0,1,0,.82A.54.54,0,0,1,5.43,24.23Z"/><path class="cls-1" d="M.57,42.35a.56.56,0,0,1-.4-.17.59.59,0,0,1,0-.82L5,36.4a.56.56,0,0,1,.81,0,.59.59,0,0,1,0,.82L1,42.18A.56.56,0,0,1,.57,42.35Z"/><path class="cls-1" d="M5.43,42.35a.56.56,0,0,1-.4-.17l-4.86-5a.59.59,0,0,1,0-.82.56.56,0,0,1,.81,0l4.86,4.95a.59.59,0,0,1,0,.82A.54.54,0,0,1,5.43,42.35Z"/></svg>